# xmcd
#
# Track frame offsets:
#	150
#	13286
#	25679
#	40790
#	57980
#	71361
#	85577
#	100607
#	115769
#	127263
#	138791
#	151270
#	164712
#	174792
#	185719
#	199315
#	214792
#	230407
#
# Disc length: 3284 seconds
# Revision: 3
# Processed by: cddbd v1.5.2PL0 Copyright (c) Steve Scherf et al.
# Submitted via: dBpowerAMP V12.0
#
DISCID=f00cd212
DTITLE=Kenny Rogers - Me And Bobby McGee
DYEAR=2000
DGENRE=Country
TTITLE0=Ruby (Don't Take Your Love to Town)
TTITLE1=Ruben James
TTITLE2=Just Dropped In (To See What Condition My Condition Was In)
TTITLE3=Something's Burning
TTITLE4=A Stranger in My Place
TTITLE5=It's Raining in My Mind
TTITLE6=Tell It All Brother
TTITLE7=For the Good Times
TTITLE8=Me and Bobby McGee
TTITLE9=Poem for a Little Lady
TTITLE10=Shadow in the Corner of Your Mind
TTITLE11=Shine on Ruby Mountain
TTITLE12=Where Does Rosie Go
TTITLE13=Always Leaving, Always Gone
TTITLE14=I'm Gonna Sing You a Sad Song Suzy
TTITLE15=My Washington Woman
TTITLE16=Tulsa Turnaround
TTITLE17=The Way It Used to Be
EXTD=
EXTT0=
EXTT1=
EXTT2=
EXTT3=
EXTT4=
EXTT5=
EXTT6=
EXTT7=
EXTT8=
EXTT9=
EXTT10=
EXTT11=
EXTT12=
EXTT13=
EXTT14=
EXTT15=
EXTT16=
EXTT17=
PLAYORDER=
